<svg id="svg-kana-hiragana-a" xmlns="http://www.w3.org/2000/svg" width="24" height="24" viewBox="0 0 25 25">
    <svg id="svg-kana-hiragana-a" xmlns="http://www.w3.org/2000/svg" x="-2" y="-10" width="48" height="48" viewBox="0 0 25 25">
        <path stroke="currentColor" stroke-width="0.5" fill="none"
              d="M8.95 17.825q-.35.1-.687.025t-.463-.4q-.125-.275.05-.5t.475-.275
          q1.575-.325 2.45-1.162t.875-2.038q0-.75-.512-1.375T9.8 11.2q-.575 1.425-1.362 2.55
          T6.7 15.7l.175.55q.075.275-.05.513t-.4.312t-.512-.038t-.313-.387l-.025-.15
          q-.65.35-1.225.538t-1.125.187q-.8 0-1.3-.525t-.5-1.4q0-1.325 1-2.625
          T5 10.625l.05-.937q.025-.462.075-.938q-.575.025-1.175 0t-1.275-.075
          q-.3-.025-.513-.225t-.212-.475t.2-.45t.475-.125q.5.05 1.138.075t1.512.025
          q.025-.275.05-.512t.05-.513q.025-.325.25-.537t.525-.213q.275 0 .425.238t.1.512
          q-.05.25-.088.5t-.087.5q1.225-.05 2.275-.162t2-.313q.275-.05.5.088t.225.412
          q0 .3-.213.5t-.512.25q-1.125.175-2.212.288T6.374 8.7q-.05.35-.062.725t-.063.725
          q.7-.2 1.363-.275t1.312-.025L9 9.5q.05-.275.25-.4t.475-.075q.325.075.488.363t.037.587
          l-.05.1q1.275.35 2.038 1.3T13 13.5q0 1.575-1.063 2.7T8.95 17.825
          M3.4 15.875q.425 0 .875-.175t.95-.525q-.175-.95-.25-1.725t-.075-1.475q-.95.6-1.575 1.475T2.75 15.1q0 .325.213.55t.487.225
          M6.4 14.25q.725-.7 1.263-1.512T8.55 11q-.575 0-1.162.1t-1.188.3q-.05.65.013 1.35t.137 1.68
          "
        />
    </svg>
</svg>
