<svg id="svg-kana-romaji-a" xmlns="http://www.w3.org/2000/svg" width="24" height="24" viewBox="0 0 25 25">
    <svg id="svg-kana-romaji-a" xmlns="http://www.w3.org/2000/svg" x="-22" y="-10" width="48" height="48" viewBox="0 0 25 25">

        <path stroke="" stroke-width="0.5" fill="currentColor"
              d="M8.95 17.825
          m8.025-.475q-1.425 0-2.25-.813t-.825-2.212q0-1.3.825-2.125t2.65-1.325q.575-.15 1.263-.275t1.487-.225
          q-.05-1.175-.55-1.713t-1.55-.537q-.525 0-1.025.15
          t-1.175.5q-.3.175-.625.1t-.5-.375t-.075-.638t.4-.512q.775-.425 1.663-.687T18.5 6.4q1.775 0 2.7 1.1t.925 3.2
          v5.6q0 .35-.238.588t-.587.237h-.125q-.325 0-.55-.213t-.275-.512l-.05-.4q-.7.625-1.537.988t-1.788.362M3.45 15.875
          M17.5 15.65q.7 0 1.363-.325t1.212-.925v-2.65q-.575.075-1.062.175t-.913.225q-1.125.35-1.687.875T15.9 14.25q0 .65.45 1.025t1.2.375
          "
        />
    </svg>
</svg>
