<svg id="svg-kana-dictionary" xmlns="http://www.w3.org/2000/svg" width="50" height="50"
     viewBox="-0.5 0 25 25">
    <path id="svg-kana-dictionary-base"
          stroke-width="0.5"
          fill="#5e0908"
          d="M6.5 16q1.175 0 2.288.263T11 17.05V7.2q-1.025-.6-2.175-.9T6.5 6q-.9 0-1.788.175T3 6.7v9.9q.875-.3 1.738-.45T6.5 16m6.5 1.05q1.1-.525 2.213-.787T17.5 16q.9 0 1.763.15T21 16.6V6.7q-.825-.35-1.713-.525T17.5 6q-1.175 0-2.325.3T13 7.2zm-1 2.425q-.35 0-.663-.087t-.587-.238q-.975-.575-2.05-.862T6.5 18q-1.05 0-2.062.275T2.5 19.05q-.525.275-1.012-.025T1 18.15V6.1q0-.275.138-.525T1.55 5.2q1.15-.6 2.4-.9T6.5 4q1.45 0 2.838.375T12 5.5q1.275-.75 2.663-1.125T17.5 4q1.3 0 2.55.3t2.4.9q.275.125.413.375T23 6.1v12.05q0 .575-.487.875t-1.013.025q-.925-.5-1.937-.775T17.5 18q-1.125 0-2.2.288t-2.05.862q-.275.15-.587.238t-.663.087"/>
    <svg xmlns="http://www.w3.org/2000/svg" x="2.5" y="4" width="15" height="15" viewBox="0 0 25 25">
        <path stroke="none" stroke-width="0.5" fill="#22e31b"
              d="M8.95 17.825q-.35.1-.687.025t-.463-.4q-.125-.275.05-.5t.475-.275
              q1.575-.325 2.45-1.162t.875-2.038q0-.75-.512-1.375T9.8 11.2q-.575 1.425-1.362 2.55
              T6.7 15.7l.175.55q.075.275-.05.513t-.4.312t-.512-.038t-.313-.387l-.025-.15
              q-.65.35-1.225.538t-1.125.187q-.8 0-1.3-.525t-.5-1.4q0-1.325 1-2.625
              T5 10.625l.05-.937q.025-.462.075-.938q-.575.025-1.175 0t-1.275-.075
              q-.3-.025-.513-.225t-.212-.475t.2-.45t.475-.125q.5.05 1.138.075t1.512.025
              q.025-.275.05-.512t.05-.513q.025-.325.25-.537t.525-.213q.275 0 .425.238t.1.512
              q-.05.25-.088.5t-.087.5q1.225-.05 2.275-.162t2-.313q.275-.05.5.088t.225.412
              q0 .3-.213.5t-.512.25q-1.125.175-2.212.288T6.374 8.7q-.05.35-.062.725t-.063.725
              q.7-.2 1.363-.275t1.312-.025L9 9.5q.05-.275.25-.4t.475-.075q.325.075.488.363t.037.587
              l-.05.1q1.275.35 2.038 1.3T13 13.5q0 1.575-1.063 2.7T8.95 17.825
              M3.4 15.875q.425 0 .875-.175t.95-.525q-.175-.95-.25-1.725t-.075-1.475q-.95.6-1.575 1.475T2.75 15.1q0 .325.213.55t.487.225
              M6.4 14.25q.725-.7 1.263-1.512T8.55 11q-.575 0-1.162.1t-1.188.3q-.05.65.013 1.35t.137 1.68"
        />
    </svg>
    <svg xmlns="http://www.w3.org/2000/svg" x="6.5" y="4" width="15" height="15" viewBox="0 0 25 25">
        <path stroke="none" stroke-width="0.5" fill="#1db4e8"
              d="M8.95 17.825
              m8.025-.475q-1.425 0-2.25-.813t-.825-2.212q0-1.3.825-2.125t2.65-1.325q.575-.15 1.263-.275t1.487-.225
              q-.05-1.175-.55-1.713t-1.55-.537q-.525 0-1.025.15
              t-1.175.5q-.3.175-.625.1t-.5-.375t-.075-.638t.4-.512q.775-.425 1.663-.687T18.5 6.4q1.775 0 2.7 1.1t.925 3.2
              v5.6q0 .35-.238.588t-.587.237h-.125q-.325 0-.55-.213t-.275-.512l-.05-.4q-.7.625-1.537.988t-1.788.362M3.45 15.875
              M17.5 15.65q.7 0 1.363-.325t1.212-.925v-2.65q-.575.075-1.062.175t-.913.225q-1.125.35-1.687.875T15.9 14.25q0 .65.45 1.025t1.2.375"
        />
    </svg>
</svg>
